#N canvas 686 91 454 467 10;
#X obj -220 93 gemwin;
#X obj 17 45 adc~ 1 2;
#X obj -220 45 tgl 15 0 empty empty empty 17 7 0 10 -262144 -1 -1 0
1;
#X msg -220 68 fullscreen \$1;
#X msg -59 68 destroy;
#X msg -126 91 reset;
#X obj -129 -155 hsl 128 15 0 0.05 0 0 gain1 empty empty -2 -8 0 10
-262144 -1 -1 1400 1;
#X floatatom -171 -155 5 0 0 0 - gain1 -;
#X floatatom -171 -56 5 0 0 0 - - xl;
#X floatatom -131 -56 5 0 0 0 - - wl;
#X floatatom -92 -56 5 0 0 0 - - hl;
#X floatatom -171 -35 5 0 0 0 - - xr;
#X floatatom -131 -35 5 0 0 0 - - wr;
#X floatatom -92 -35 5 0 0 0 - - hr;
#X text -230 -57 left eye;
#X text -236 -36 right eye;
#X text -172 -78 x;
#X text -132 -78 width;
#X text -93 -78 height;
#X obj 20 144 s lrms;
#X floatatom -171 -14 5 0 0 0 - rrms -;
#X floatatom -131 -14 5 0 0 0 - lrms -;
#X obj -220 174 gainrect;
#X obj -220 144 r xl;
#X obj -187 144 r wl;
#X obj -155 144 r hl;
#X obj -123 144 r lrms;
#X obj -220 231 gainrect;
#X obj -220 201 r xr;
#X obj -187 201 r wr;
#X obj -155 201 r hr;
#X obj -123 201 r rrms;
#X msg -128 68 create \, 1;
#X obj -129 -131 hsl 128 15 1 5 0 0 dbpow empty empty -2 -8 0 10 -262144
-1 -1 2800 1;
#X obj 20 120 scalerms;
#X obj 124 46 r gain1;
#X obj 124 66 r dbpow;
#X obj 124 85 r gain2;
#X obj 79 120 scalerms;
#X obj 79 144 s rrms;
#X floatatom -170 -131 5 0 0 0 - dbpow -;
#X floatatom -171 -107 5 0 0 0 - gain2 -;
#X text -229 -132 ** dbpow;
#X text -223 -156 * gain1;
#X obj -129 -107 hsl 128 15 1 5 0 0 gain2 empty empty -2 -8 0 10 -262144
-1 -1 800 1;
#X text -223 -108 * gain2;
#X text -242 -13 scaled rms;
#X connect 1 0 34 0;
#X connect 1 1 38 0;
#X connect 2 0 3 0;
#X connect 3 0 0 0;
#X connect 4 0 0 0;
#X connect 5 0 0 0;
#X connect 23 0 22 0;
#X connect 24 0 22 1;
#X connect 25 0 22 2;
#X connect 26 0 22 3;
#X connect 28 0 27 0;
#X connect 29 0 27 1;
#X connect 30 0 27 2;
#X connect 31 0 27 3;
#X connect 32 0 0 0;
#X connect 34 0 19 0;
#X connect 35 0 34 1;
#X connect 35 0 38 1;
#X connect 36 0 34 2;
#X connect 36 0 38 2;
#X connect 37 0 34 3;
#X connect 37 0 38 3;
#X connect 38 0 39 0;
