#N canvas 951 589 205 216 10;
#X obj 18 17 inlet~;
#X obj 18 40 rms~;
#X obj 18 65 rmstodb;
#X obj 18 90 * 1;
#X obj 18 115 pow 1;
#X obj 18 140 * 1;
#X obj 18 165 outlet;
#X obj 66 17 inlet;
#X obj 107 17 inlet;
#X obj 148 17 inlet;
#X connect 0 0 1 0;
#X connect 1 0 2 0;
#X connect 2 0 3 0;
#X connect 3 0 4 0;
#X connect 4 0 5 0;
#X connect 5 0 6 0;
#X connect 7 0 3 1;
#X connect 8 0 4 1;
#X connect 9 0 5 1;
