#N canvas 160 127 937 663 10;
#X obj -263 60 vradio 15 1 0 3 empty empty empty 0 -8 0 10 -262144
-1 -1 0;
#X text -234 56 deactivate fullscreen;
#X text -234 72 fullscreen screen 1;
#X text -233 88 fullscreen screen 2;
#X floatatom -251 -30 5 0 0 0 fps fps -;
#X floatatom -163 -7 5 0 0 0 bpm_left bpm_left -;
#X floatatom -68 -7 5 0 0 0 bpm_right bpm_right -;
#X floatatom -251 -7 5 0 0 0 bpm bpm -;
#X floatatom -251 16 5 0 0 0 fdelay fdelay -;
#N canvas 884 514 450 300 compute_bpm 1;
#X obj -152 11 adc~ 1 2;
#X obj -152 40 bonk~;
#X obj -69 40 bonk~;
#X obj -125 67 unpack 0 0 0;
#X obj -91 107 s bpm_left;
#X obj -8 107 s bpm_right;
#X obj -42 67 unpack 0 0 0;
#X obj -70 133 average;
#X obj -70 167 s bpm;
#X obj 77 9 aubiopitch~;
#X connect 0 0 1 0;
#X connect 0 1 2 0;
#X connect 1 1 3 0;
#X connect 2 1 6 0;
#X connect 3 1 4 0;
#X connect 3 1 7 0;
#X connect 6 1 5 0;
#X connect 6 1 7 1;
#X connect 7 0 8 0;
#X restore -263 149 pd compute_bpm;
#N canvas 1036 520 450 300 compute_fps 0;
#X obj -280 6 gemhead 2;
#X obj -280 49 1;
#X obj -280 27 bang;
#X obj -280 126 accum;
#X obj -280 150 s fps;
#X obj -249 49 metro 1000;
#X msg -241 97 set 0;
#X obj -241 73 bang;
#X obj -249 29 tgl 15 0 empty empty empty 17 7 0 10 -262144 -1 -1 0
1;
#X connect 0 0 2 0;
#X connect 1 0 3 1;
#X connect 2 0 1 0;
#X connect 3 0 4 0;
#X connect 5 0 3 0;
#X connect 5 0 7 0;
#X connect 6 0 3 0;
#X connect 7 0 6 0;
#X connect 8 0 5 0;
#X restore -263 170 pd compute_fps;
#N canvas 1158 492 450 300 compute_fdelay 0;
#X obj -249 22 r fps;
#X obj -114 22 r bpm;
#X obj -249 84 s fdelay;
#X obj -249 56 expr ( $f1 * 60 ) / $f2;
#X connect 0 0 3 0;
#X connect 1 0 3 1;
#X connect 3 0 2 0;
#X restore -263 191 pd compute_fdelay;
#N canvas 39 504 450 300 gemwinmgr 0;
#N canvas 330 634 450 300 esc 0;
#X obj 161 101 gemkeyboard;
#X obj 260 98 gemkeyname;
#X obj 263 128 sel Escape;
#X obj 163 131 sel 53;
#X obj 208 159 keyname;
#X obj 245 182 sel Escape;
#X obj 212 231 outlet;
#X connect 0 0 3 0;
#X connect 1 0 2 0;
#X connect 2 0 6 0;
#X connect 3 0 6 0;
#X connect 4 0 5 0;
#X connect 5 0 6 0;
#X restore 263 26 pd esc;
#X msg 263 52 0 \, destroy;
#X obj 56 79 gemwin;
#X msg 56 52 reset \, fullscreen \$1 \, create \, 1;
#X obj 56 26 inlet;
#X connect 0 0 1 0;
#X connect 1 0 2 0;
#X connect 3 0 2 0;
#X connect 4 0 3 0;
#X restore -263 114 pd gemwinmgr;
#N canvas 62 228 481 521 videffect 0;
#X obj 66 61 pix_video;
#X obj -3 271 pix_texture;
#X obj -3 189 pix_diff;
#X obj 42 163 pix_delay;
#X obj -3 299 rectangle 4 4;
#X obj -3 245 pix_multiply;
#X obj -3 219 pix_delay 1;
#X obj 66 27 gemhead 1;
#X obj 93 135 r fdelay;
#X obj 22 27 inlet;
#X connect 0 0 2 0;
#X connect 0 0 3 0;
#X connect 0 0 5 1;
#X connect 1 0 4 0;
#X connect 2 0 6 0;
#X connect 3 0 2 1;
#X connect 5 0 1 0;
#X connect 6 0 5 0;
#X connect 7 0 0 0;
#X connect 8 0 3 1;
#X connect 9 0 0 0;
#X restore -69 150 pd videffect;
#X msg -69 124 dialog;
#X connect 0 0 12 0;
#X connect 14 0 13 0;
