#N canvas 559 311 719 568 10;
#X obj 5 7 vradio 15 1 0 3 empty empty empty 0 -8 0 10 -262144 -1 -1
0;
#X text 34 3 deactivate fullscreen;
#X text 34 19 fullscreen screen 1;
#X text 35 35 fullscreen screen 2;
#N canvas 330 634 450 300 esc 0;
#X obj 161 101 gemkeyboard;
#X obj 260 98 gemkeyname;
#X obj 263 128 sel Escape;
#X obj 163 131 sel 53;
#X obj 208 159 keyname;
#X obj 245 182 sel Escape;
#X obj 212 231 outlet;
#X connect 0 0 3 0;
#X connect 1 0 2 0;
#X connect 2 0 6 0;
#X connect 3 0 6 0;
#X connect 4 0 5 0;
#X connect 5 0 6 0;
#X restore 212 124 pd esc;
#X msg 212 150 0 \, destroy;
#X obj 5 -29 inlet;
#X msg 5 150 destroy \, fullscreen \$1 \, create \, 1;
#X obj 5 177 gemwin 30;
#X floatatom 171 11 5 0 0 0 - - -;
#X floatatom 171 33 5 0 0 0 - - -;
#X obj 171 -58 loadbang;
#X msg 172 -34 720;
#X msg 204 -35 480;
#X obj 170 69 pack 0 0;
#X obj 169 94 prepend dimen;
#X connect 0 0 7 0;
#X connect 4 0 5 0;
#X connect 5 0 8 0;
#X connect 6 0 0 0;
#X connect 7 0 8 0;
#X connect 9 0 14 0;
#X connect 10 0 14 1;
#X connect 11 0 12 0;
#X connect 11 0 13 0;
#X connect 12 0 9 0;
#X connect 13 0 10 0;
#X connect 14 0 15 0;
#X connect 15 0 8 0;
#X coords 0 -1 1 1 210 60 1 0 0;
