#N canvas 0 22 450 300 10;
#X obj 119 86 inlet;
#X obj 192 86 inlet;
#X obj 231 86 inlet;
#X obj 119 149 -;
#X obj 176 149 -;
#X obj 119 175 /;
#X obj 176 123 bng 15 250 50 0 empty empty empty 17 7 0 10 -262144
-1 -1;
#X obj 119 253 outlet;
#X obj 288 87 inlet;
#X obj 327 87 inlet;
#X obj 272 150 -;
#X obj 272 124 bng 15 250 50 0 empty empty empty 17 7 0 10 -262144
-1 -1;
#X obj 119 201 *;
#X obj 119 227 +;
#X connect 0 0 3 0;
#X connect 1 0 4 1;
#X connect 1 0 6 0;
#X connect 1 0 3 1;
#X connect 2 0 4 0;
#X connect 3 0 5 0;
#X connect 4 0 5 1;
#X connect 5 0 12 0;
#X connect 6 0 4 0;
#X connect 8 0 10 1;
#X connect 8 0 11 0;
#X connect 8 0 13 1;
#X connect 9 0 10 0;
#X connect 10 0 12 1;
#X connect 11 0 10 0;
#X connect 12 0 13 0;
#X connect 13 0 7 0;
