#N canvas 0 22 450 300 10;
#X obj 191 168 pix_alpha;
#X obj 191 57 inlet;
#X obj 191 197 outlet;
#X msg 242 144 0 0 0;
#X msg 216 100 0;
#X msg 203 79 1;
#X msg 229 122 \$1 \$2 \$3;
#X obj 252 40 loadbang;
#X connect 0 0 2 0;
#X connect 1 0 0 0;
#X connect 3 0 0 4;
#X connect 4 0 0 2;
#X connect 5 0 0 1;
#X connect 6 0 0 3;
#X connect 7 0 5 0;
#X connect 7 0 4 0;
#X connect 7 0 6 0;
#X connect 7 0 3 0;
