#N canvas 0 22 450 300 10;
#X obj 83 103 inlet;
#X obj 184 103 inlet;
#X obj 293 103 inlet;
#X obj 77 186 outlet;
#X obj 183 186 outlet;
#X obj 290 186 outlet;
#X obj 79 150 pix_bitmask;
#X obj 178 148 pix_bitmask;
#X obj 290 156 pix_bitmask;
#X msg 356 126 0 0 255;
#X msg 237 125 0 255 0;
#X msg 130 125 255 0 0;
#X obj 147 64 loadbang;
#X connect 0 0 6 0;
#X connect 1 0 7 0;
#X connect 2 0 8 0;
#X connect 6 0 3 0;
#X connect 7 0 4 0;
#X connect 8 0 5 0;
#X connect 9 0 8 2;
#X connect 10 0 7 2;
#X connect 11 0 6 2;
#X connect 12 0 11 0;
#X connect 12 0 10 0;
#X connect 12 0 9 0;
