#N canvas 1057 522 450 300 10;
#X obj 429 163 pix_delay 1;
#X obj 342 133 pix_separator;
#X obj 343 98 t l l;
#X obj 429 133 pix_separator;
#X obj 342 194 pix_diff;
#X obj 193 264 pix_separator;
#X obj 342 229 t l l l;
#X obj 361 264 pix_separator;
#X obj 527 264 pix_separator;
#X obj 193 297 pix_bitmask 255 0 0;
#X obj 361 297 pix_bitmask 0 255 0;
#X obj 527 297 pix_bitmask 0 0 255;
#X obj 191 323 pix_multiply;
#X obj 361 329 pix_multiply;
#X obj 527 329 pix_multiply;
#X obj 315 297 r rddb;
#X obj 483 297 r gddb;
#X obj 650 297 r bddb;
#X obj 366 384 pix_add;
#X obj 289 349 pix_add;
#X connect 0 0 4 1;
#X connect 1 0 4 0;
#X connect 2 0 3 0;
#X connect 2 1 1 0;
#X connect 3 0 0 0;
#X connect 4 0 6 0;
#X connect 5 0 9 0;
#X connect 6 0 8 0;
#X connect 6 1 7 0;
#X connect 6 2 5 0;
#X connect 7 0 10 0;
#X connect 8 0 11 0;
#X connect 9 0 12 0;
#X connect 10 0 13 0;
#X connect 11 0 14 0;
#X connect 12 0 19 0;
#X connect 13 0 19 1;
#X connect 14 0 18 1;
#X connect 15 0 12 1;
#X connect 16 0 13 1;
#X connect 17 0 14 1;
#X connect 19 0 18 0;
