#N canvas 518 518 450 300 10;
#X obj 26 78 gemhead;
#X obj 26 165 color;
#X obj 26 195 rectangle;
#X obj 26 104 translate -3 1 0 0;
#X obj 97 21 inlet;
#X obj 211 21 inlet;
#X obj 135 21 inlet;
#X obj 173 21 inlet;
#X obj 208 70 pack 0 0 0;
#X obj 249 21 inlet;
#X obj 288 21 inlet;
#X connect 0 0 3 0;
#X connect 1 0 2 0;
#X connect 3 0 1 0;
#X connect 4 0 3 1;
#X connect 5 0 8 0;
#X connect 6 0 2 1;
#X connect 7 0 2 2;
#X connect 8 0 1 1;
#X connect 9 0 8 1;
#X connect 10 0 8 2;
