#N canvas 44 362 263 248 10;
#X obj 16 68 gemhead;
#X msg 43 126 \$1 \$1 \$1;
#X obj 16 155 color;
#X obj 16 185 rectangle;
#X obj 16 94 translate -3 1 0 0;
#X obj 87 11 inlet;
#X obj 201 11 inlet;
#X obj 125 11 inlet;
#X obj 163 11 inlet;
#X connect 0 0 4 0;
#X connect 1 0 2 1;
#X connect 2 0 3 0;
#X connect 4 0 2 0;
#X connect 5 0 4 1;
#X connect 6 0 1 0;
#X connect 7 0 3 1;
#X connect 8 0 3 2;
