#N canvas 734 166 500 385 10;
#X obj 18 17 inlet~;
#X obj 18 42 * 1;
#X obj 18 67 pow 1;
#X obj 18 92 * 1;
#X obj 66 17 inlet;
#X obj 107 17 inlet;
#X obj 148 17 inlet;
#X obj 18 41 env~;
#X obj 141 104 hsl 128 15 0 0.1 0 0 empty empty empty -2 -8 0 10 -204786
-1 -1 6350 1;
#X obj 141 127 hsl 128 15 0 5 0 0 empty empty empty -2 -8 0 10 -204800
-1 -1 8890 1;
#X obj 141 150 hsl 128 15 0 0.1 0 0 empty empty empty -2 -8 0 10 -232576
-1 -1 3810 1;
#X text 105 103 * 0;
#X text 105 126 ^ 0;
#X text 105 149 * 0;
#X text 280 103 0.1;
#X text 280 126 5;
#X text 280 149 0.1;
#X floatatom 310 104 5 0 0 0 - - -;
#X floatatom 310 127 5 0 0 0 - - -;
#X floatatom 310 150 5 0 0 0 - - -;
#X obj 141 173 hsl 128 15 0 1 0 0 empty empty empty -2 -8 0 10 -261682
-1 -1 1600 1;
#X obj 141 196 hsl 128 15 0 1 0 0 empty empty empty -2 -8 0 10 -261682
-1 -1 12700 1;
#X floatatom 310 173 5 0 0 0 - - -;
#X floatatom 310 196 5 0 0 0 - - -;
#X obj 18 302 outlet;
#X text 280 172 1;
#X text 280 195 1;
#X obj 66 302 f;
#X obj 18 267 expr if ($f1>$f2 \, $f1*$f3+$f2*(1-$f3) \, $f1*$f4+$f2*(1-$f4))
;
#X text 26 244 slew filter ... or whatever you call it.;
#X obj 189 17 inlet;
#X obj 229 17 inlet;
#X text 93 172 (>) 0;
#X text 93 195 (<) 0;
#X connect 0 0 7 0;
#X connect 1 0 2 0;
#X connect 2 0 3 0;
#X connect 3 0 28 0;
#X connect 4 0 8 0;
#X connect 5 0 9 0;
#X connect 6 0 10 0;
#X connect 7 0 1 0;
#X connect 8 0 1 1;
#X connect 8 0 17 0;
#X connect 9 0 2 1;
#X connect 9 0 18 0;
#X connect 10 0 3 1;
#X connect 10 0 19 0;
#X connect 20 0 22 0;
#X connect 20 0 28 2;
#X connect 21 0 23 0;
#X connect 21 0 28 3;
#X connect 27 0 28 1;
#X connect 28 0 27 0;
#X connect 28 0 24 0;
#X connect 30 0 20 0;
#X connect 31 0 21 0;
#X coords 0 -1 1 1 260 115 2 90 100;
