#N canvas 0 22 450 300 10;
#X obj 174 125 inlet~;
#X obj 189 174 inlet;
#X obj 181 154 inlet;
#X obj 174 196 bp~;
#X obj 174 217 outlet~;
#X obj 260 174 inlet;
#X obj 252 154 inlet;
#X obj 245 196 bp~;
#X obj 245 217 outlet~;
#X obj 331 174 inlet;
#X obj 323 154 inlet;
#X obj 316 196 bp~;
#X obj 316 217 outlet~;
#X connect 0 0 3 0;
#X connect 0 0 7 0;
#X connect 0 0 11 0;
#X connect 1 0 3 2;
#X connect 2 0 3 1;
#X connect 3 0 4 0;
#X connect 5 0 7 2;
#X connect 6 0 7 1;
#X connect 7 0 8 0;
#X connect 9 0 11 2;
#X connect 10 0 11 1;
#X connect 11 0 12 0;
